<mxfile host="app.diagrams.net" modified="2021-07-01T03:53:56.882Z" agent="5.0 (Macintosh; Intel Mac OS X 10_15_7) AppleWebKit/537.36 (KHTML, like Gecko) Chrome/91.0.4472.106 Safari/537.36" etag="srQ6lK6YoPj1fjZDl1Y2" version="14.8.3" type="github">
  <diagram id="IdMVkafQGEphkV8RRrkL" name="Page-1">
    <mxGraphModel dx="925" dy="578" grid="1" gridSize="10" guides="1" tooltips="1" connect="1" arrows="1" fold="1" page="1" pageScale="1" pageWidth="827" pageHeight="1169" math="0" shadow="0">
      <root>
        <mxCell id="0" />
        <mxCell id="1" parent="0" />
        <mxCell id="VxQ7woKLR5Lcuw_jpnHq-1" value="" style="rounded=0;whiteSpace=wrap;html=1;" parent="1" vertex="1">
          <mxGeometry x="40" y="350" width="720" height="80" as="geometry" />
        </mxCell>
        <mxCell id="VxQ7woKLR5Lcuw_jpnHq-2" value="" style="rounded=0;whiteSpace=wrap;html=1;" parent="1" vertex="1">
          <mxGeometry x="40" y="130" width="720" height="80" as="geometry" />
        </mxCell>
      </root>
    </mxGraphModel>
  </diagram>
</mxfile>
